<svg xmlns="http://www.w3.org/2000/svg" width="62" height="57" viewBox="0 0 62 57" fill="none"><path d="M60.9196 22.3734V51.4873C60.9196 52.6558 60.4554 53.7764 59.6291 54.6027C58.8029 55.4289 57.6822 55.8931 56.5137 55.8931H5.40585C4.82727 55.8931 4.25435 55.7792 3.71981 55.5577C3.18526 55.3363 2.69957 55.0118 2.29044 54.6027C1.46419 53.7764 1 52.6558 1 51.4873V22.3734C1 21.2049 1.46419 20.0843 2.29044 19.258C3.1167 18.4317 4.23735 17.9676 5.40585 17.9676H42.3709L38.1722 30.0484L36.2204 35.6747L39.9874 36.4545L43.7808 30.0484L50.9359 17.9587H56.5137C57.0931 17.9587 57.6667 18.073 58.2018 18.295C58.7369 18.5169 59.223 18.8422 59.6323 19.2523C60.0415 19.6624 60.3658 20.1491 60.5867 20.6847C60.8076 21.2202 60.9207 21.7941 60.9196 22.3734Z" stroke="#333333" stroke-width="2" stroke-linecap="round" stroke-linejoin="round"></path><path d="M60.9196 30.0481H43.7809" stroke="#333333" stroke-width="2" stroke-linecap="round" stroke-linejoin="round"></path><path d="M38.1722 30.0481H1" stroke="#333333" stroke-width="2" stroke-linecap="round" stroke-linejoin="round"></path><path d="M57.1837 7.40206L50.9362 17.9761L43.7811 30.0481L39.9877 36.4542L36.2207 35.6744L38.1725 30.0481L42.3712 17.9585L47.2882 3.78926C50.8481 -2.07933 59.0694 2.37498 57.1837 7.40206Z" stroke="#333333" stroke-width="2" stroke-linecap="round" stroke-linejoin="round"></path><path d="M34.2288 38.6001C34.2288 38.6001 28.162 40.3228 30.4882 44.9357C32.8145 49.5486 29.6071 52.082 29.6071 52.082C29.6071 52.082 40.3485 48.315 38.9343 39.8734C37.3374 39.5619 35.7649 39.1364 34.2288 38.6001Z" stroke="#333333" stroke-width="2" stroke-linecap="round" stroke-linejoin="round"></path><path d="M6.48534 24.5979H7.32246" stroke="#333333" stroke-width="2" stroke-linecap="round" stroke-linejoin="round"></path><path d="M14.2839 24.5979H15.121" stroke="#333333" stroke-width="2" stroke-linecap="round" stroke-linejoin="round"></path><path d="M22.0866 24.5979H22.9238" stroke="#333333" stroke-width="2" stroke-linecap="round" stroke-linejoin="round"></path></svg>